<?xml version="1.0" encoding="utf-8"?>
<!-- Generator: Adobe Illustrator 16.0.0, SVG Export Plug-In . SVG Version: 6.00 Build 0)  -->
<!DOCTYPE svg PUBLIC "-//W3C//DTD SVG 1.1//EN" "http://www.w3.org/Graphics/SVG/1.1/DTD/svg11.dtd">
<svg version="1.1" id="Calque_1" xmlns="http://www.w3.org/2000/svg" xmlns:xlink="http://www.w3.org/1999/xlink" x="0px" y="0px"
	 width="283.46px" height="155.123px" viewBox="0 0 283.46 155.123" enable-background="new 0 0 283.46 155.123"
	 xml:space="preserve">
<path fill="#FFFFFF" d="M61.864,50.34c11.043-0.284,21.605,1.278,31.675,4.692c5.408,2.446,8.156,5.368,8.246,8.808l0.011,0.493
	c0.143,5.471-8.038,11.516-24.584,18.17l1.122,23.273l-0.735,0.535l-0.768,0.014c-0.917,0.03-1.551-2.223-1.929-6.723
	c-2.72-8.479-4.433-13.376-5.125-14.643c-5.064,1.801-9.87,2.758-14.465,2.88l-1.747,0.047c-7.44,0.192-11.883-0.699-13.344-2.673
	h0.253c1.441,1.135,4.958,1.622,10.557,1.477c7.808-1.362,13.696-2.776,17.677-4.202c-2.234-5.244-7.831-11.789-16.798-19.619
	c-5.957-4.57-8.958-7.314-8.982-8.271l-0.019-0.748c-0.043-1.733,6.019-2.873,18.183-3.489L61.864,50.34L61.864,50.34z
	 M45.939,54.519c8.995,7.141,15.744,13.488,20.268,19.013l5.235,8.118l2.973-0.83c-0.883-8.443-2.133-14.672-3.737-18.693
	l-1.842-3.457l0.249-0.244l0.238-0.004c2.367,2.394,4.572,7.426,6.652,15.087l0.94,6.504c15.014-6.356,22.478-11.811,22.364-16.365
	c-0.101-3.888-6.706-7.051-19.787-9.509c-5.45-0.865-11.063-1.21-16.809-1.06C54.992,53.276,49.423,53.743,45.939,54.519
	L45.939,54.519z M72.512,84.145l2.162,6.697l0.258-0.005l-0.177-6.749l-0.5-0.507L72.512,84.145L72.512,84.145z M86.356,72.324
	c0.668,0.216,1.021,0.462,1.026,0.72c-0.959,8.272-1.393,13.979-1.312,17.077l0.058,2.24l0.238-0.005
	c0.778-5.365,2.139-8.079,4.043-8.126l0.763-0.276c2.501-0.063,3.833,3.581,4.023,10.93l-1.222,0.779
	c-1.173,0.032-1.899-2.533-2.209-7.701l-0.281-0.999l-0.239-0.249l-0.258,0.005c-1.227,1.295-2.151,4.395-2.773,9.352
	c-0.462,1.016-1.111,1.531-1.946,1.551c-1.642,0.044-2.616-2.028-2.916-6.187C83.641,78.722,84.648,72.369,86.356,72.324
	L86.356,72.324z M100.678,81.335l0.491-0.015l0.525,0.479l0.014,0.514c-1.526,5.302-2.271,8.74-2.233,10.325l0.066,2.495
	l0.507,0.502c2.902-2.702,5.564-6.282,7.994-10.73l0.997-0.277l0.234-0.009l1.04,1.233l-0.616,5.28
	c0.023,0.999,0.65,1.909,1.828,2.706l3.264-0.084l5.989-0.666l0.015,0.511l-7.455,2.697l-1.494,0.042
	c-2.501,0.062-4.062-1.566-4.639-4.903c-3.178,4.439-5.56,6.66-7.096,6.702l-1.236,0.028c-1.371-0.84-2.067-2.228-2.12-4.2
	c-0.081-3.009,0.74-6.796,2.463-11.333L100.678,81.335L100.678,81.335z M122.766,80.636c1.842,0.075,2.778,0.802,2.815,2.195
	l-0.982,0.765l-0.268-0.244h-0.234l0.009,0.263c1.542,1.756,2.325,3.063,2.349,3.935l0.043,1.752
	c-1.632,4.561-4.506,6.898-8.582,7.005l-1.499,0.037c-2.363-0.488-3.546-1.613-3.594-3.41l-0.019-0.773
	c-0.081-3.119,2.414-6.688,7.478-10.712L122.766,80.636L122.766,80.636z M120.111,84.716c-2.19,2.58-4.189,5.457-4.8,7.634
	c0.023,1.006,0.616,1.479,1.789,1.446l1.007-0.023c3.961-1.423,5.922-3.145,5.87-5.149l-0.005-0.258
	C123.2,85.879,121.911,84.674,120.111,84.716L120.111,84.716z M129.461,75.07l0.749-0.021c0.497,0.162,0.765,0.647,0.788,1.482
	l0.033,1.257l-0.692,12.057l0.005,0.239l0.258-0.014c1.446-6.876,2.787-10.335,3.985-10.367l0.253-0.005
	c2.008-0.052,3.078,3.168,3.249,9.689c1.576,7.141,3.245,10.69,5.038,10.644c0.517-0.009,1.419-0.636,2.711-1.822l0.005,0.232
	c-1.163,2.038-2.375,3.079-3.678,3.112l-0.491,0.009c-3.183,0.087-5.406-5.688-6.715-17.357l-0.258,0.007
	c-2.018,8.777-3.403,13.819-4.113,15.137l-0.735,0.517l-0.75,0.019c-1.017-0.42-1.537-1.499-1.579-3.208
	C128.024,82.292,128.674,75.091,129.461,75.07L129.461,75.07z M155.502,75.143c0.788-0.021,1.414,0.881,1.824,2.708
	c0.047,1.753-0.64,4.355-2.042,7.814l0.027,1.011l1.213,18.012l8.963-2.477l0.004,0.488c-5.307,1.439-8.289,2.438-8.943,2.987
	l1.083,12.757l-0.733,0.514l-0.751,0.017c-7.34-2.784-14.983-4.163-22.915-4.167c-4.181-0.554-6.295-1.25-6.318-2.08l-0.029-1.009
	c-0.014-0.743,3.561-1.355,10.733-1.775l16.164-4.671l-0.019-0.773l-0.912-15.24l-0.234,0.004c-2.209,2.214-4.013,3.356-5.427,3.394
	l-0.511,0.01c-2.343-0.512-3.546-1.571-3.588-3.149l-0.052-2.015c1.173-5.056,3.288-7.611,6.317-7.687l0.258-0.01
	c1.093-0.028,2.085,0.375,3.025,1.178l0.258-0.005c0.197-3.847,0.985-5.793,2.35-5.835H155.502L155.502,75.143z M145.59,88.68
	c0.017,0.727,0.44,1.207,1.28,1.479c1.623-0.038,3.499-2.015,5.616-5.919l-0.01-0.487c-0.014-0.559-1.029-1.021-3.053-1.44
	C146.783,83.643,145.515,85.771,145.59,88.68L145.59,88.68z M137.183,112.207l0.005,0.248c10.541,1.029,15.829,1.965,15.853,2.838
	l1.761,0.469l-0.005-0.253l-0.725-9.01l-0.253,0.014C146.326,109.376,140.791,111.275,137.183,112.207L137.183,112.207z"/>
<path fill="#FFFFFF" d="M164.813,51.438l0.512-0.014c1.355,0.947,2.07,2.272,2.112,3.942l0.021,0.746
	c0.084,3.269-0.626,11.305-2.134,24.103l11.162-4.049c1.646-13.894,2.624-20.849,2.964-20.858l0.258-0.007
	c0.854,0.943,1.292,2.087,1.327,3.473l-1.81,16.574l0.253-0.009c4.674-1.273,8.93-1.984,12.705-2.08l1.521-0.042
	c4.334-0.113,7.445,1.069,9.35,3.52l0.005,0.256c-1.022-0.807-1.784-1.215-2.277-1.203l-8.761-0.03
	c-3.724,0.103-8.123,0.985-13.23,2.612c-1.217,10.765-1.794,17.219-1.742,19.338l0.101,4.013l-0.978,1.032
	c-1.188-0.61-1.811-2.177-1.876-4.721l1.78-18.835l-0.259,0.005c-3.817,1.102-7.464,2.438-10.923,4.045l-0.312,7.023l0.129,4.999
	c0.01,0.343,0.272,0.507,0.76,0.492l0.019,0.744c0.023,0.879-0.22,1.379-0.705,1.521l-1.26,0.028
	c-1.004,0.03-1.553-2.204-1.672-6.712l0.296-7.536l-0.237,0.009l-0.994,0.281c-1.178-0.059-1.771-0.529-1.794-1.451
	c2.31-0.894,3.466-1.611,3.452-2.099c1.292-9.489,2.084-17.671,2.352-24.626l-0.331-3.496l-0.241,0.26l-0.258,0.007l-0.01-0.493
	L164.813,51.438L164.813,51.438z M186.266,78.99l0.492-0.015l0.525,0.483l0.01,0.506c-1.529,5.3-2.272,8.747-2.23,10.323
	l0.063,2.504l0.509,0.497c2.898-2.706,5.564-6.279,7.994-10.73l0.994-0.281l0.237-0.005l1.031,1.231l-0.604,5.273
	c0.023,1.011,0.647,1.911,1.822,2.719l3.269-0.085l5.989-0.668l0.014,0.509l-7.454,2.699l-1.499,0.037
	c-2.495,0.062-4.057-1.562-4.634-4.908c-3.182,4.444-5.555,6.667-7.096,6.709l-1.24,0.033c-1.37-0.84-2.066-2.232-2.115-4.202
	c-0.08-3.011,0.741-6.799,2.457-11.331L186.266,78.99L186.266,78.99z M211.097,75.265c0.835-0.021,1.25,0.567,1.29,1.721
	l0.251-0.007c-1.757,6.483-2.51,11.522-2.495,15.115l0.042,8.906l0.188,7.025c3.063-0.166,10.466-1.245,15.639-6.076
	c-1.508,6.095-11.434,8.468-15.573,8.571c0.162,6.09,2.13,10.491,2.364,19.372l0.019,0.75c-0.239,0.673-0.807,1.025-1.729,1.049
	l-14.813-10.646c-8.128-5.842-9.99-7.092-10.069-10.146l-0.015-0.493c-0.04-1.684,1.024-2.546,2.438-2.586l0.251-0.005l11.05,0.723
	l7.688-0.207l-0.02-0.743l0.01-16.687l-0.005-0.254l-0.258,0.005c-1.227,3.707-2.763,5.591-4.599,5.638l-0.258,0.007
	c-2.01,0.052-3.056-1.675-3.151-5.183l-0.023-1.006c-0.094-6.836,0.611-10.273,2.124-10.315l0.258-0.005
	c0.361-0.01,0.629,0.385,0.783,1.215c-0.516,3.332-0.703,6.758-0.611,10.304c0.166,1.496,0.419,2.232,0.807,2.223
	c2.591-3.231,4.462-6.786,5.602-10.662C208.705,77.852,209.622,75.307,211.097,75.265L211.097,75.265z M188.948,110.335
	l-0.244,0.244l0.005,0.253c1.213,3.112,3.822,4.313,12.084,10.355l8.935,6.52l-0.005-0.239c-0.234-8.876-1.923-12.365-2.033-16.616
	l-4.692,0.356L188.948,110.335L188.948,110.335z"/>
<polygon fill-rule="evenodd" clip-rule="evenodd" fill="#95C11F" points="237.933,0 240.229,0.553 220.681,101.875 218.385,101.321 
	237.933,0 "/>
<polygon fill-rule="evenodd" clip-rule="evenodd" fill="#E71D73" points="223.462,17.102 225.821,17.041 233.161,119.971 
	230.802,120.032 223.462,17.102 "/>
<path fill="#FFFFFF" d="M2.461,142.129h1.072l3.397,9.363h0.028l3.372-9.363h1.054L7.502,152.59H6.345L2.461,142.129z"/>
<path fill="#FFFFFF" d="M16.695,141.91c3.281,0,4.922,2.597,4.922,5.45c0,2.858-1.642,5.449-4.922,5.449
	c-3.298,0-4.938-2.591-4.938-5.449C11.757,144.507,13.396,141.91,16.695,141.91z M16.695,151.961c2.753,0,3.928-2.314,3.928-4.601
	s-1.175-4.601-3.928-4.601c-2.771,0-3.942,2.314-3.942,4.601S13.924,151.961,16.695,151.961z"/>
<path fill="#FFFFFF" d="M22.05,142.129h8.292v0.849h-3.649v9.612h-0.996v-9.612H22.05V142.129z"/>
<path fill="#FFFFFF" d="M31.327,142.129h4.792c1.729,0,3.181,0.835,3.181,2.725c0,1.322-0.689,2.406-2.038,2.669v0.027
	c1.362,0.177,1.759,1.116,1.833,2.364c0.042,0.715,0.042,2.15,0.484,2.676h-1.1c-0.249-0.41-0.249-1.182-0.279-1.623
	c-0.089-1.466-0.205-3.091-2.095-3.021h-3.78v4.644h-0.998V142.129z M32.324,147.098h3.723c1.215,0,2.255-0.765,2.255-2.038
	c0-1.275-0.761-2.082-2.255-2.082h-3.723V147.098z"/>
<path fill="#FFFFFF" d="M41.105,142.129h7.226v0.849h-6.228v3.78h5.832v0.851h-5.832v4.133h6.3v0.849h-7.298V142.129z"/>
<path fill="#FFFFFF" d="M52.748,142.129h8.294v0.849h-3.648v9.612h-0.997v-9.612h-3.649V142.129z"/>
<path fill="#FFFFFF" d="M62.028,142.129h4.791c1.729,0,3.179,0.835,3.179,2.725c0,1.322-0.687,2.406-2.035,2.669v0.027
	c1.362,0.177,1.759,1.116,1.83,2.364c0.046,0.715,0.046,2.15,0.484,2.676h-1.098c-0.251-0.41-0.251-1.182-0.279-1.623
	c-0.088-1.466-0.206-3.091-2.095-3.021h-3.783v4.644h-0.994V142.129z M63.022,147.098h3.723c1.217,0,2.257-0.765,2.257-2.038
	c0-1.275-0.761-2.082-2.257-2.082h-3.723V147.098z"/>
<path fill="#FFFFFF" d="M74.868,142.129h1.114l4.103,10.461h-1.069l-1.274-3.25h-4.763l-1.26,3.25h-1.068L74.868,142.129z
	 M73.287,148.49h4.118l-2.024-5.362L73.287,148.49z"/>
<path fill="#FFFFFF" d="M81.115,142.129h0.998v10.461h-0.998V142.129z"/>
<path fill="#FFFFFF" d="M83.169,142.129h8.292v0.849h-3.647v9.612h-0.996v-9.612h-3.649V142.129z"/>
<path fill="#FFFFFF" d="M92.447,142.129h7.225v0.849h-6.227v3.78h5.831v0.851h-5.831v4.133h6.298v0.849h-7.296V142.129z"/>
<path fill="#FFFFFF" d="M101.04,142.129h0.996v6.477c-0.014,2.435,1.143,3.355,3.063,3.355c1.934,0,3.093-0.921,3.077-3.355v-6.477
	h0.997v6.697c0,2.155-1.157,3.983-4.073,3.983c-2.901,0-4.059-1.828-4.059-3.983V142.129z"/>
<path fill="#FFFFFF" d="M111.184,142.129h4.792c1.729,0,3.18,0.835,3.18,2.725c0,1.322-0.689,2.406-2.038,2.669v0.027
	c1.363,0.177,1.759,1.116,1.833,2.364c0.043,0.715,0.043,2.15,0.485,2.676h-1.101c-0.248-0.41-0.248-1.182-0.279-1.623
	c-0.088-1.466-0.205-3.091-2.095-3.021h-3.779v4.644h-0.998V142.129z M112.182,147.098h3.722c1.214,0,2.256-0.765,2.256-2.038
	c0-1.275-0.761-2.082-2.256-2.082h-3.722V147.098z"/>
<path fill="#FFFFFF" d="M132.688,145.292c-0.353-1.606-1.685-2.532-3.209-2.532c-2.771,0-3.943,2.314-3.943,4.601
	s1.172,4.601,3.943,4.601c1.935,0,3.164-1.493,3.354-3.355h0.998c-0.279,2.567-1.907,4.204-4.353,4.204
	c-3.298,0-4.938-2.591-4.938-5.449c0-2.854,1.639-5.45,4.938-5.45c1.978,0,3.942,1.187,4.204,3.382H132.688z"/>
<path fill="#FFFFFF" d="M135.361,142.129h0.996v4.544h6.213v-4.544h0.999v10.461h-0.999v-5.067h-6.213v5.067h-0.996V142.129z"/>
<path fill="#FFFFFF" d="M145.756,142.129h0.994v10.461h-0.994V142.129z"/>
<path fill="#FFFFFF" d="M148.922,142.129h1.114l6.094,8.853h0.028v-8.853h0.999v10.461h-1.116l-6.092-8.848h-0.031v8.848h-0.996
	V142.129z"/>
<path fill="#FFFFFF" d="M163.637,141.91c3.285,0,4.925,2.597,4.925,5.45c0,2.858-1.64,5.449-4.925,5.449
	c-3.295,0-4.937-2.591-4.937-5.449C158.7,144.507,160.342,141.91,163.637,141.91z M163.637,151.961c2.758,0,3.928-2.314,3.928-4.601
	s-1.17-4.601-3.928-4.601c-2.768,0-3.942,2.314-3.942,4.601S160.869,151.961,163.637,151.961z"/>
<path fill="#FFFFFF" d="M170.195,142.129h0.994v10.461h-0.994V142.129z"/>
<path fill="#FFFFFF" d="M173.847,149.149c-0.047,2.152,1.508,2.812,3.412,2.812c1.1,0,2.77-0.603,2.77-2.124
	c0-1.189-1.187-1.656-2.155-1.891l-2.328-0.572c-1.231-0.305-2.359-0.894-2.359-2.521c0-1.024,0.661-2.943,3.604-2.943
	c2.068,0,3.883,1.112,3.869,3.255h-0.999c-0.057-1.599-1.377-2.405-2.856-2.405c-1.362,0-2.622,0.529-2.622,2.08
	c0,0.982,0.732,1.393,1.583,1.599l2.552,0.631c1.478,0.395,2.711,1.039,2.711,2.753c0,0.72-0.296,2.987-4.003,2.987
	c-2.477,0-4.294-1.111-4.177-3.66H173.847z"/>
<path fill="#E71D73" d="M192.447,151.229c-0.762,0.95-1.846,1.58-3.077,1.58c-1.801,0-3.165-1.041-3.165-2.931
	c0-1.494,1.393-2.477,2.565-3.107c-0.572-0.743-1.29-1.508-1.29-2.519c0-1.275,1.041-2.124,2.314-2.124s2.314,0.849,2.314,2.124
	c0,1.307-1.011,2.052-2.052,2.711l2.286,2.758c0.251-0.516,0.308-0.969,0.308-1.761h0.924c0,0.586-0.132,1.613-0.617,2.507
	l1.759,2.122h-1.155L192.447,151.229z M189.268,147.374c-0.997,0.544-2.142,1.337-2.142,2.597c0,1.23,1.086,2.065,2.272,2.065
	c1.041,0,1.891-0.659,2.477-1.494L189.268,147.374z M188.404,144.253c0,0.734,0.715,1.555,1.173,2.108
	c0.731-0.452,1.608-1.098,1.608-2.108c0-0.865-0.629-1.346-1.391-1.346C189.035,142.907,188.404,143.388,188.404,144.253z"/>
<path fill="#FFFFFF" d="M198.565,142.129h1.069l3.4,9.363h0.027l3.372-9.363h1.054l-3.884,10.461h-1.158L198.565,142.129z"/>
<path fill="#FFFFFF" d="M208.489,142.129h0.994v10.461h-0.994V142.129z"/>
<path fill="#FFFFFF" d="M211.669,142.129h7.223v0.849h-6.224v3.78h5.832v0.851h-5.832v4.133h6.299v0.849h-7.298V142.129z"/>
<path fill="#FFFFFF" d="M219.234,142.129h8.294v0.849h-3.648v9.612h-0.997v-9.612h-3.648V142.129z"/>
<path fill="#FFFFFF" d="M228.499,142.129h1.114l6.095,8.853h0.03v-8.853h0.996v10.461h-1.113l-6.095-8.848h-0.028v8.848h-0.999
	V142.129z"/>
<path fill="#FFFFFF" d="M241.9,142.129h1.111l4.104,10.461h-1.069l-1.276-3.25h-4.763l-1.259,3.25h-1.069L241.9,142.129z
	 M240.315,148.49h4.12l-2.023-5.362L240.315,148.49z"/>
<path fill="#FFFFFF" d="M248.042,142.129h1.466l3.621,9.173l3.602-9.173h1.466v10.461h-0.994v-9.038h-0.033l-3.574,9.038h-0.938
	l-3.588-9.038h-0.03v9.038h-0.997V142.129z"/>
<path fill="#FFFFFF" d="M260.358,142.129h0.994v10.461h-0.994V142.129z"/>
<path fill="#FFFFFF" d="M263.538,142.129h7.225v0.849h-6.226v3.78h5.832v0.851h-5.832v4.133h6.299v0.849h-7.298V142.129z"/>
<path fill="#FFFFFF" d="M272.217,142.129h1.116l6.092,8.853h0.031v-8.853h0.996v10.461h-1.113l-6.095-8.848h-0.028v8.848h-0.999
	V142.129z"/>
</svg>
